<svg width="12" height="12" viewBox="0 0 12 12" fill="none" xmlns="http://www.w3.org/2000/svg">
<path d="M11.5097 10.6814L9.34553 8.53469C10.1856 7.48726 10.5924 6.15778 10.4823 4.81962C10.3723 3.48145 9.75367 2.23631 8.75375 1.34023C7.75382 0.444154 6.44858 -0.0347605 5.1064 0.00196639C3.76421 0.0386933 2.48711 0.58827 1.53769 1.53769C0.58827 2.48711 0.0386933 3.76421 0.0019664 5.1064C-0.0347605 6.44858 0.444154 7.75382 1.34023 8.75374C2.23632 9.75366 3.48145 10.3723 4.81962 10.4823C6.15778 10.5924 7.48727 10.1856 8.53469 9.34552L10.6814 11.4922C10.7356 11.5469 10.8001 11.5903 10.8712 11.6199C10.9423 11.6495 11.0185 11.6647 11.0955 11.6647C11.1725 11.6647 11.2488 11.6495 11.3199 11.6199C11.3909 11.5903 11.4555 11.5469 11.5097 11.4922C11.6148 11.3834 11.6736 11.2381 11.6736 11.0868C11.6736 10.9355 11.6148 10.7901 11.5097 10.6814ZM5.26219 9.34552C4.45459 9.34552 3.66511 9.10604 2.99361 8.65736C2.32211 8.20868 1.79874 7.57095 1.48968 6.82482C1.18063 6.07868 1.09976 5.25766 1.25732 4.46557C1.41488 3.67348 1.80378 2.9459 2.37484 2.37484C2.9459 1.80377 3.67348 1.41487 4.46557 1.25732C5.25766 1.09976 6.07869 1.18063 6.82482 1.48968C7.57095 1.79874 8.20868 2.32211 8.65736 2.99361C9.10604 3.66511 9.34553 4.45458 9.34553 5.26219C9.34553 6.34516 8.91532 7.38377 8.14954 8.14954C7.38377 8.91532 6.34516 9.34552 5.26219 9.34552Z" fill="#828282"/>
</svg>
